<svg width="41" height="40" viewBox="0 0 41 40" fill="none" xmlns="http://www.w3.org/2000/svg">
<path d="M40.0322 20C40.0322 31.0457 31.0779 40 20.0322 40C8.98653 40 0.0322266 31.0457 0.0322266 20C0.0322266 8.9543 8.98653 0 20.0322 0C31.0779 0 40.0322 8.9543 40.0322 20Z" fill="#956AFF"/>
<path d="M24.0322 29V27.8C24.0322 26.1198 24.0322 25.2798 23.7052 24.638C23.4176 24.0735 22.9587 23.6146 22.3942 23.327C21.7525 23 20.9124 23 19.2322 23H14.8322C13.1521 23 12.312 23 11.6703 23.327C11.1058 23.6146 10.6468 24.0735 10.3592 24.638C10.0322 25.2798 10.0322 26.1198 10.0322 27.8V29M24.0322 14L26.0322 16L30.0322 12M20.5322 15.5C20.5322 17.433 18.9652 19 17.0322 19C15.0992 19 13.5322 17.433 13.5322 15.5C13.5322 13.567 15.0992 12 17.0322 12C18.9652 12 20.5322 13.567 20.5322 15.5Z" stroke="white" stroke-width="2" stroke-linecap="round" stroke-linejoin="round"/>
</svg>
