<svg width="24" height="24" viewBox="0 0 24 24" fill="none" xmlns="http://www.w3.org/2000/svg">
<path d="M23.8549 3.7532C23.8549 2.84697 23.1202 2.11227 22.214 2.11227H19.4391V0.669429C19.4391 0.299801 19.1393 0 18.7697 0H17.3238C16.9557 0 16.6536 0.299801 16.6536 0.669429V2.11303H7.4395V0.669429C7.4395 0.299801 7.1397 0 6.77007 0H5.42059C5.05096 0 4.75116 0.299801 4.75116 0.669429V2.11303H1.78351C0.87728 2.11303 0.142578 2.84773 0.142578 3.75396V9.60121H1.00707V22.3135C1.00707 23.2463 1.76226 24.0008 2.6943 24.0008H21.2091C22.1419 24.0008 22.8963 23.2463 22.8963 22.3135V9.60046H23.858L23.8549 3.7532ZM20.2072 19.5288C20.2072 20.4616 19.4528 21.216 18.52 21.216H5.47827C4.54623 21.216 3.79104 20.4616 3.79104 19.5288V9.60046H20.2065V19.5288H20.2072Z" fill="white"/>
<path d="M8.78328 11.4236H6.0957V14.2083H8.78328V11.4236Z" fill="white"/>
<path d="M13.3907 11.4236H10.7031V14.2083H13.3907V11.4236Z" fill="white"/>
<path d="M17.9989 11.4236H15.3105V14.2083H17.9989V11.4236Z" fill="white"/>
<path d="M8.78328 16.3198H6.0957V19.1038H8.78328V16.3198Z" fill="white"/>
<path d="M13.3907 16.3198H10.7031V19.1038H13.3907V16.3198Z" fill="white"/>
<path d="M17.9989 16.3198H15.3105V19.1038H17.9989V16.3198Z" fill="white"/>
</svg>
