<svg width="52" height="49" viewBox="0 0 52 49" fill="none" xmlns="http://www.w3.org/2000/svg">
<rect x="0.0898438" y="0.322998" width="51.2702" height="48.4219" rx="9.49448" fill="#0B63C5"/>
<path d="M27.9407 13.2807V17.8561C27.9407 18.4765 27.9407 18.7866 28.0614 19.0236C28.1676 19.232 28.3371 19.4015 28.5455 19.5077C28.7824 19.6284 29.0926 19.6284 29.713 19.6284H34.2883M30.156 25.1668H21.2945M30.156 29.5975H21.2945M23.5099 20.736H21.2945M27.9407 12.9822H22.1807C20.3196 12.9822 19.389 12.9822 18.6782 13.3444C18.0529 13.663 17.5446 14.1713 17.226 14.7966C16.8638 15.5074 16.8638 16.438 16.8638 18.2991V29.8191C16.8638 31.6802 16.8638 32.6107 17.226 33.3215C17.5446 33.9468 18.0529 34.4552 18.6782 34.7738C19.389 35.136 20.3196 35.136 22.1807 35.136H29.2699C31.131 35.136 32.0615 35.136 32.7724 34.7738C33.3977 34.4552 33.906 33.9468 34.2246 33.3215C34.5868 32.6107 34.5868 31.6802 34.5868 29.8191V19.6283L27.9407 12.9822Z" stroke="white" stroke-width="1.8989" stroke-linecap="round" stroke-linejoin="round"/>
</svg>
