<svg width="20" height="21" viewBox="0 0 20 21" fill="none" xmlns="http://www.w3.org/2000/svg">
<g clip-path="url(#clip0_4584_8394)">
<path d="M13.3332 13.6554V15.9888C13.3332 16.9222 13.3332 17.3889 13.1516 17.7454C12.9918 18.059 12.7368 18.314 12.4232 18.4738C12.0667 18.6554 11.6 18.6554 10.6666 18.6554H4.33323C3.39981 18.6554 2.9331 18.6554 2.57658 18.4738C2.26298 18.314 2.00801 18.059 1.84822 17.7454C1.66656 17.3889 1.66656 16.9222 1.66656 15.9888V9.65544C1.66656 8.72202 1.66656 8.25531 1.84822 7.89879C2.00801 7.58518 2.26298 7.33021 2.57658 7.17043C2.9331 6.98877 3.39981 6.98877 4.33323 6.98877H6.66657M9.33323 13.6554H15.6666C16.6 13.6554 17.0667 13.6554 17.4232 13.4738C17.7368 13.314 17.9918 13.059 18.1516 12.7454C18.3332 12.3889 18.3332 11.9222 18.3332 10.9888V4.65544C18.3332 3.72202 18.3332 3.2553 18.1516 2.89879C17.9918 2.58518 17.7368 2.33021 17.4232 2.17043C17.0667 1.98877 16.6 1.98877 15.6666 1.98877H9.33323C8.39981 1.98877 7.9331 1.98877 7.57658 2.17043C7.26298 2.33021 7.00801 2.58518 6.84822 2.89879C6.66657 3.2553 6.66657 3.72202 6.66657 4.65544V10.9888C6.66657 11.9222 6.66657 12.3889 6.84822 12.7454C7.00801 13.059 7.26298 13.314 7.57658 13.4738C7.9331 13.6554 8.39981 13.6554 9.33323 13.6554Z" stroke="#0B63C5" stroke-width="2.1792" stroke-linecap="round" stroke-linejoin="round"/>
</g>
<defs>
<clipPath id="clip0_4584_8394">
<rect width="20" height="20" fill="white" transform="translate(0 0.322266)"/>
</clipPath>
</defs>
</svg>
