<svg width="52" height="49" viewBox="0 0 52 49" fill="none" xmlns="http://www.w3.org/2000/svg">
<rect x="0.0874023" y="0.322998" width="51.2702" height="48.4219" rx="9.49448" fill="#008000"/>
<g clip-path="url(#clip0_6644_12254)">
<path d="M27.5076 13.2807V17.8561C27.5076 18.4765 27.5076 18.7866 27.6283 19.0236C27.7345 19.232 27.9039 19.4015 28.1124 19.5077C28.3493 19.6284 28.6595 19.6284 29.2799 19.6284H33.8552M29.7229 25.1668H20.8614M29.7229 29.5975H20.8614M23.0768 20.736H20.8614M27.5076 12.9822H21.7476C19.8865 12.9822 18.9559 12.9822 18.2451 13.3444C17.6198 13.663 17.1115 14.1713 16.7929 14.7966C16.4307 15.5074 16.4307 16.438 16.4307 18.2991V29.8191C16.4307 31.6802 16.4307 32.6107 16.7929 33.3215C17.1115 33.9468 17.6198 34.4552 18.2451 34.7738C18.9559 35.136 19.8865 35.136 21.7476 35.136H28.8368C30.6979 35.136 31.6284 35.136 32.3393 34.7738C32.9646 34.4552 33.4729 33.9468 33.7915 33.3215C34.1537 32.6107 34.1537 31.6802 34.1537 29.8191V19.6283L27.5076 12.9822Z" stroke="white" stroke-width="1.8989" stroke-linecap="round" stroke-linejoin="round"/>
</g>
<defs>
<clipPath id="clip0_6644_12254">
<rect width="26.5846" height="26.5846" fill="white" transform="translate(12.4302 10.7668)"/>
</clipPath>
</defs>
</svg>
