<svg width="41" height="40" viewBox="0 0 41 40" fill="none" xmlns="http://www.w3.org/2000/svg">
<path d="M40.0161 20C40.0161 31.0457 31.0618 40 20.0161 40C8.97042 40 0.0161133 31.0457 0.0161133 20C0.0161133 8.9543 8.97042 0 20.0161 0C31.0618 0 40.0161 8.9543 40.0161 20Z" fill="#02CACD"/>
<path d="M20.0161 23.5H15.5161C14.1206 23.5 13.4228 23.5 12.855 23.6722C11.5766 24.06 10.5762 25.0605 10.1884 26.3389C10.0161 26.9067 10.0161 27.6044 10.0161 29M27.0161 29V23M24.0161 26H30.0161M22.5161 15.5C22.5161 17.9853 20.5014 20 18.0161 20C15.5308 20 13.5161 17.9853 13.5161 15.5C13.5161 13.0147 15.5308 11 18.0161 11C20.5014 11 22.5161 13.0147 22.5161 15.5Z" stroke="white" stroke-width="2" stroke-linecap="round" stroke-linejoin="round"/>
</svg>
