<svg width="52" height="49" viewBox="0 0 52 49" fill="none" xmlns="http://www.w3.org/2000/svg">
<rect x="0.185547" y="0.322998" width="51.2702" height="48.4219" rx="9.49448" fill="#EF2E2E"/>
<g clip-path="url(#clip0_6644_12263)">
<path d="M28.5076 13.2807V17.8561C28.5076 18.4765 28.5076 18.7866 28.6283 19.0236C28.7345 19.232 28.9039 19.4015 29.1124 19.5077C29.3493 19.6284 29.6595 19.6284 30.2799 19.6284H34.8552M30.7229 25.1668H21.8614M30.7229 29.5975H21.8614M24.0768 20.736H21.8614M28.5076 12.9822H22.7476C20.8865 12.9822 19.9559 12.9822 19.2451 13.3444C18.6198 13.663 18.1115 14.1713 17.7929 14.7966C17.4307 15.5074 17.4307 16.438 17.4307 18.2991V29.8191C17.4307 31.6802 17.4307 32.6107 17.7929 33.3215C18.1115 33.9468 18.6198 34.4552 19.2451 34.7738C19.9559 35.136 20.8865 35.136 22.7476 35.136H29.8368C31.6979 35.136 32.6284 35.136 33.3393 34.7738C33.9646 34.4552 34.4729 33.9468 34.7915 33.3215C35.1537 32.6107 35.1537 31.6802 35.1537 29.8191V19.6283L28.5076 12.9822Z" stroke="white" stroke-width="1.8989" stroke-linecap="round" stroke-linejoin="round"/>
</g>
<defs>
<clipPath id="clip0_6644_12263">
<rect width="26.5846" height="26.5846" fill="white" transform="translate(12.5283 10.7668)"/>
</clipPath>
</defs>
</svg>
