<svg width="40" height="41" viewBox="0 0 40 41" fill="none" xmlns="http://www.w3.org/2000/svg">
<circle cx="20" cy="20.5" r="20" fill="#FFBDBD"/>
<path d="M22 10.7695V14.9001C22 15.4601 22 15.7401 22.109 15.9541C22.2049 16.1422 22.3578 16.2952 22.546 16.3911C22.7599 16.5001 23.0399 16.5001 23.6 16.5001H27.7305M24 21.5H16M24 25.5H16M18 17.5H16M22 10.5H16.8C15.1198 10.5 14.2798 10.5 13.638 10.827C13.0735 11.1146 12.6146 11.5735 12.327 12.138C12 12.7798 12 13.6198 12 15.3V25.7C12 27.3802 12 28.2202 12.327 28.862C12.6146 29.4265 13.0735 29.8854 13.638 30.173C14.2798 30.5 15.1198 30.5 16.8 30.5H23.2C24.8802 30.5 25.7202 30.5 26.362 30.173C26.9265 29.8854 27.3854 29.4265 27.673 28.862C28 28.2202 28 27.3802 28 25.7V16.5L22 10.5Z" stroke="#EF2E2E" stroke-width="2" stroke-linecap="round" stroke-linejoin="round"/>
</svg>
