<svg width="40" height="40" viewBox="0 0 40 40" fill="none" xmlns="http://www.w3.org/2000/svg">
<circle cx="20" cy="20" r="20" fill="#007AFF"/>
<path d="M13.3163 27.4384C13.9246 26.0052 15.3449 25 17 25H23C24.6551 25 26.0754 26.0052 26.6837 27.4384M24 17.5C24 19.7091 22.2091 21.5 20 21.5C17.7909 21.5 16 19.7091 16 17.5C16 15.2909 17.7909 13.5 20 13.5C22.2091 13.5 24 15.2909 24 17.5ZM30 20C30 25.5228 25.5228 30 20 30C14.4772 30 10 25.5228 10 20C10 14.4772 14.4772 10 20 10C25.5228 10 30 14.4772 30 20Z" stroke="white" stroke-width="2" stroke-linecap="round" stroke-linejoin="round"/>
</svg>
