<svg width="41" height="40" viewBox="0 0 41 40" fill="none" xmlns="http://www.w3.org/2000/svg">
<circle cx="20.0483" cy="20" r="20" fill="#FDAD15"/>
<path d="M13.3646 27.4384C13.973 26.0052 15.3933 25 17.0483 25H23.0483C24.7034 25 26.1237 26.0052 26.732 27.4384M24.0483 17.5C24.0483 19.7091 22.2575 21.5 20.0483 21.5C17.8392 21.5 16.0483 19.7091 16.0483 17.5C16.0483 15.2909 17.8392 13.5 20.0483 13.5C22.2575 13.5 24.0483 15.2909 24.0483 17.5ZM30.0483 20C30.0483 25.5228 25.5712 30 20.0483 30C14.5255 30 10.0483 25.5228 10.0483 20C10.0483 14.4772 14.5255 10 20.0483 10C25.5712 10 30.0483 14.4772 30.0483 20Z" stroke="white" stroke-width="2" stroke-linecap="round" stroke-linejoin="round"/>
</svg>
