<svg width="35" height="36" viewBox="0 0 35 36" fill="none" xmlns="http://www.w3.org/2000/svg">
<circle cx="17.5" cy="18" r="17.5" fill="white"/>
<circle cx="17.5" cy="18" r="17.5" fill="url(#paint0_linear_4143_5747)"/>
<path fill-rule="evenodd" clip-rule="evenodd" d="M17.2462 11.8038C17.3847 11.7423 17.54 11.7335 17.6833 11.7775L17.7538 11.8038L23.3788 14.3031C23.605 14.4036 23.7484 14.6268 23.75 14.8698L23.7462 14.9433L23.3884 18.163C23.2056 19.8088 22.3075 21.287 20.9391 22.2081L20.7791 22.3118L17.8313 24.1542C17.6511 24.2668 17.4279 24.2793 17.2382 24.1918L17.1688 24.1542L14.2209 22.3118C12.8167 21.4342 11.8734 19.9845 11.6359 18.3522L11.6116 18.163L11.2538 14.9433C11.2265 14.6972 11.3468 14.4608 11.5559 14.3368L11.6212 14.3031L17.2462 11.8038ZM17.5 13.0589L12.5467 15.2597L12.854 18.025C12.9952 19.2965 13.6854 20.4394 14.7377 21.1567L14.8834 21.2518L17.5 22.8872L20.1166 21.2518C21.2015 20.5738 21.9327 19.4567 22.1234 18.1976L22.1461 18.025L22.4533 15.2597L17.5 13.0589ZM18.8835 15.7381C19.0968 15.4667 19.4897 15.4196 19.7611 15.6328C20.0117 15.8297 20.0711 16.1796 19.9111 16.4457L19.8664 16.5104L17.3665 19.6354C17.1515 19.909 16.7594 19.951 16.4923 19.7435L16.4331 19.6912L15.1831 18.4412C14.939 18.1971 14.939 17.8014 15.1831 17.5573C15.4084 17.332 15.7629 17.3147 16.0081 17.5053L16.067 17.5573L16.8188 18.3091L18.8835 15.7381Z" fill="white"/>
<defs>
<linearGradient id="paint0_linear_4143_5747" x1="17.9883" y1="11.0171" x2="31.0371" y2="34.5158" gradientUnits="userSpaceOnUse">
<stop stop-color="#0B63C5"/>
<stop offset="1" stop-color="#073D79"/>
</linearGradient>
</defs>
</svg>
