<svg width="35" height="36" viewBox="0 0 35 36" fill="none" xmlns="http://www.w3.org/2000/svg">
<circle cx="17.5" cy="17.5" r="17.5" fill="#2F972F"/>
<g clip-path="url(#clip0_4143_5766)">
<path d="M18.75 11.4146V13.9961C18.75 14.3462 18.75 14.5212 18.8181 14.6549C18.878 14.7725 18.9737 14.8681 19.0913 14.928C19.225 14.9961 19.4 14.9961 19.75 14.9961H22.3316M20 18.1211H15M20 20.6211H15M16.25 15.6211H15M18.75 11.2461H15.5C14.4499 11.2461 13.9249 11.2461 13.5238 11.4505C13.171 11.6302 12.8841 11.9171 12.7044 12.2699C12.5 12.6709 12.5 13.196 12.5 14.2461V20.7461C12.5 21.7962 12.5 22.3212 12.7044 22.7223C12.8841 23.0751 13.171 23.362 13.5238 23.5417C13.9249 23.7461 14.4499 23.7461 15.5 23.7461H19.5C20.5501 23.7461 21.0751 23.7461 21.4762 23.5417C21.829 23.362 22.1159 23.0751 22.2956 22.7223C22.5 22.3212 22.5 21.7962 22.5 20.7461V14.9961L18.75 11.2461Z" stroke="white" stroke-linecap="round" stroke-linejoin="round"/>
</g>
<defs>
<clipPath id="clip0_4143_5766">
<rect width="15" height="15" fill="white" transform="translate(10 9.99609)"/>
</clipPath>
</defs>
</svg>
