<svg width="35" height="36" viewBox="0 0 35 36" fill="none" xmlns="http://www.w3.org/2000/svg">
<circle cx="17.5" cy="17.5" r="17.5" fill="white"/>
<circle cx="17.5" cy="17.5" r="17.5" fill="#FFB330"/>
<path d="M18.75 11.4185V14C18.75 14.3501 18.75 14.5251 18.8181 14.6588C18.878 14.7764 18.9737 14.872 19.0913 14.9319C19.225 15 19.4 15 19.75 15H22.3316M20 18.125H15M20 20.625H15M16.25 15.625H15M18.75 11.25H15.5C14.4499 11.25 13.9249 11.25 13.5238 11.4544C13.171 11.6341 12.8841 11.921 12.7044 12.2738C12.5 12.6749 12.5 13.1999 12.5 14.25V20.75C12.5 21.8001 12.5 22.3251 12.7044 22.7262C12.8841 23.079 13.171 23.3659 13.5238 23.5456C13.9249 23.75 14.4499 23.75 15.5 23.75H19.5C20.5501 23.75 21.0751 23.75 21.4762 23.5456C21.829 23.3659 22.1159 23.079 22.2956 22.7262C22.5 22.3251 22.5 21.8001 22.5 20.75V15L18.75 11.25Z" stroke="white" stroke-linecap="round" stroke-linejoin="round"/>
</svg>
