<svg width="35" height="36" viewBox="0 0 35 36" fill="none" xmlns="http://www.w3.org/2000/svg">
<circle cx="17.5" cy="18" r="17.5" fill="white"/>
<circle cx="17.5" cy="18" r="17.5" fill="#666666"/>
<path d="M18.75 11.9185V14.5C18.75 14.8501 18.75 15.0251 18.8181 15.1588C18.878 15.2764 18.9737 15.372 19.0913 15.4319C19.225 15.5 19.4 15.5 19.75 15.5H22.3316M20 18.625H15M20 21.125H15M16.25 16.125H15M18.75 11.75H15.5C14.4499 11.75 13.9249 11.75 13.5238 11.9544C13.171 12.1341 12.8841 12.421 12.7044 12.7738C12.5 13.1749 12.5 13.6999 12.5 14.75V21.25C12.5 22.3001 12.5 22.8251 12.7044 23.2262C12.8841 23.579 13.171 23.8659 13.5238 24.0456C13.9249 24.25 14.4499 24.25 15.5 24.25H19.5C20.5501 24.25 21.0751 24.25 21.4762 24.0456C21.829 23.8659 22.1159 23.579 22.2956 23.2262C22.5 22.8251 22.5 22.3001 22.5 21.25V15.5L18.75 11.75Z" stroke="white" stroke-linecap="round" stroke-linejoin="round"/>
</svg>
