<svg width="35" height="36" viewBox="0 0 35 36" fill="none" xmlns="http://www.w3.org/2000/svg">
<circle cx="17.5" cy="18" r="17.5" fill="white"/>
<circle cx="17.5" cy="18" r="17.5" fill="url(#paint0_linear_4143_5736)"/>
<path d="M15 18.3125L16.5625 19.875L20 16.4375" stroke="white" stroke-linecap="round" stroke-linejoin="round"/>
<path d="M17.5 24.25C18.2727 24.25 18.9362 23.7826 19.2233 23.1152C19.3247 22.8793 19.6599 22.7404 19.8984 22.8355C20.5734 23.1045 21.3731 22.9658 21.9194 22.4194C22.4658 21.8731 22.6044 21.0734 22.3355 20.3985C22.2404 20.1599 22.3793 19.8247 22.6152 19.7233C23.2826 19.4362 23.75 18.7727 23.75 18C23.75 17.2273 23.2826 16.5638 22.6152 16.2768C22.3793 16.1753 22.2404 15.8401 22.3355 15.6015C22.6045 14.9266 22.4658 14.1269 21.9194 13.5806C21.3731 13.0342 20.5734 12.8955 19.8985 13.1645C19.6599 13.2596 19.3247 13.1208 19.2233 12.8848C18.9362 12.2174 18.2727 11.75 17.5 11.75C16.7273 11.75 16.0638 12.2174 15.7768 12.8848C15.6753 13.1207 15.3401 13.2596 15.1015 13.1645C14.4266 12.8955 13.6269 13.0342 13.0806 13.5806C12.5342 14.1269 12.3955 14.9266 12.6645 15.6015C12.7596 15.8401 12.6208 16.1753 12.3848 16.2768C11.7174 16.5638 11.25 17.2273 11.25 18C11.25 18.7727 11.7174 19.4362 12.3848 19.7233C12.6207 19.8247 12.7596 20.1599 12.6645 20.3984C12.3955 21.0734 12.5342 21.8731 13.0806 22.4194C13.6269 22.9658 14.4266 23.1044 15.1015 22.8355C15.3401 22.7404 15.6753 22.8793 15.7768 23.1152C16.0638 23.7826 16.7273 24.25 17.5 24.25Z" stroke="white" stroke-linecap="round" stroke-linejoin="round"/>
<defs>
<linearGradient id="paint0_linear_4143_5736" x1="17.9883" y1="11.0171" x2="31.0371" y2="34.5158" gradientUnits="userSpaceOnUse">
<stop stop-color="#0B63C5"/>
<stop offset="1" stop-color="#073D79"/>
</linearGradient>
</defs>
</svg>
