<svg width="30" height="30" viewBox="0 0 30 30" fill="none" xmlns="http://www.w3.org/2000/svg">
<rect width="30" height="30" rx="10.54" fill="#F1F7FE"/>
<path d="M8.37555 8.569H14.9243V11.5159C14.9243 11.6968 15.0709 11.8434 15.2517 11.8434H18.1987V14.1354H18.8535V11.5159C18.8535 11.4722 18.8446 11.4294 18.8281 11.3898C18.8115 11.35 18.7875 11.3142 18.7575 11.2842L15.4834 8.01007C15.4534 7.98009 15.4176 7.95614 15.3778 7.93952C15.3382 7.92299 15.2955 7.91406 15.2517 7.91406H8.04812C7.86729 7.91406 7.7207 8.06065 7.7207 8.24148V21.9938C7.7207 22.1747 7.86729 22.3213 8.04812 22.3213H14.5969V21.6665H8.37555V8.569ZM15.5792 9.03196L17.7357 11.1885H15.5792V9.03196Z" fill="#020D1B"/>
<path d="M19.1805 15.1172C16.8333 15.1172 14.9238 17.0266 14.9238 19.3739C14.9238 21.7211 16.8333 23.6305 19.1805 23.6305C21.5277 23.6305 23.4372 21.7211 23.4372 19.3739C23.4372 17.0266 21.5277 15.1172 19.1805 15.1172ZM19.1805 22.9757C17.1945 22.9757 15.5787 21.3599 15.5787 19.3739C15.5787 17.3878 17.1945 15.7721 19.1805 15.7721C21.1665 15.7721 22.7823 17.3878 22.7823 19.3739C22.7823 21.36 21.1666 22.9757 19.1805 22.9757Z" fill="#020D1B"/>
<path d="M20.9675 19.046H19.5094V17.5872C19.5094 17.4064 19.3628 17.2598 19.182 17.2598C19.0012 17.2598 18.8546 17.4064 18.8546 17.5872V19.046H17.3958C17.215 19.046 17.0684 19.1926 17.0684 19.3734C17.0684 19.5542 17.215 19.7008 17.3958 19.7008H18.8546V21.1596C18.8546 21.3404 19.0012 21.487 19.182 21.487C19.3628 21.487 19.5094 21.3404 19.5094 21.1596V19.7009H20.9675C21.1483 19.7009 21.2949 19.5543 21.2949 19.3734C21.295 19.1926 21.1484 19.046 20.9675 19.046Z" fill="#020D1B"/>
</svg>
