<svg width="30" height="30" viewBox="0 0 30 30" fill="none" xmlns="http://www.w3.org/2000/svg">
<rect width="30" height="30" rx="10.54" fill="#F1F7FE"/>
<path d="M18.001 11.4375C18.001 12.2331 17.6849 12.9962 17.1223 13.5588C16.5597 14.1214 15.7966 14.4375 15.001 14.4375C14.2053 14.4375 13.4423 14.1214 12.8797 13.5588C12.317 12.9962 12.001 12.2331 12.001 11.4375C12.001 10.6419 12.317 9.87879 12.8797 9.31618C13.4423 8.75357 14.2053 8.4375 15.001 8.4375C15.7966 8.4375 16.5597 8.75357 17.1223 9.31618C17.6849 9.87879 18.001 10.6419 18.001 11.4375V11.4375ZM15.001 16.6875C13.6086 16.6875 12.2732 17.2406 11.2887 18.2252C10.3041 19.2098 9.75098 20.5451 9.75098 21.9375H20.251C20.251 20.5451 19.6979 19.2098 18.7133 18.2252C17.7287 17.2406 16.3934 16.6875 15.001 16.6875V16.6875Z" stroke="#FF88B3" stroke-width="1.55" stroke-linecap="round" stroke-linejoin="round"/>
</svg>
